<svg width="20" height="20" viewBox="0 0 20 20" fill="none" xmlns="http://www.w3.org/2000/svg">
<g clip-path="url(#clip0_4753_1154)">
<path d="M8.75 11.4023C8.57812 11.4023 8.4375 11.543 8.4375 11.7148V12.1867C8.4375 13.0492 9.1375 13.7492 10 13.7492C10.4125 13.7492 10.8063 13.5867 11.1063 13.2898C11.4 12.993 11.5625 12.5992 11.5625 12.1867V11.7148C11.5625 11.543 11.4219 11.4023 11.25 11.4023C11.0781 11.4023 10.9375 11.543 10.9375 11.7148V12.1867C10.9375 12.4336 10.8406 12.6711 10.6656 12.8492C10.4844 13.0273 10.25 13.1242 10 13.1242C9.48438 13.1242 9.0625 12.7023 9.0625 12.1867V11.7148C9.0625 11.543 8.92188 11.4023 8.75 11.4023Z" fill="white"/>
<path d="M16.5625 16.5625C16.3906 16.5625 16.25 16.7031 16.25 16.875V19.0625C16.25 19.2344 16.3906 19.375 16.5625 19.375C16.7344 19.375 16.875 19.2344 16.875 19.0625V16.875C16.875 16.7031 16.7344 16.5625 16.5625 16.5625Z" fill="white"/>
<path d="M14.0625 11.875H12.5C12.3281 11.875 12.1875 12.0156 12.1875 12.1875C12.1875 12.3594 12.3281 12.5 12.5 12.5H14.0625C15.2687 12.5 16.25 13.4813 16.25 14.6875V15.625C16.25 15.7969 16.3906 15.9375 16.5625 15.9375C16.7344 15.9375 16.875 15.7969 16.875 15.625V14.6875C16.875 13.1375 15.6125 11.875 14.0625 11.875Z" fill="white"/>
<path d="M7.8125 12.1875C7.8125 12.0156 7.67188 11.875 7.5 11.875H5.9375C4.3875 11.875 3.125 13.1375 3.125 14.6875V15.625C3.125 15.7969 3.26562 15.9375 3.4375 15.9375C3.60938 15.9375 3.75 15.7969 3.75 15.625V14.6875C3.75 13.4813 4.73125 12.5 5.9375 12.5H7.5C7.67188 12.5 7.8125 12.3594 7.8125 12.1875Z" fill="white"/>
<path d="M3.4375 16.5625C3.26562 16.5625 3.125 16.7031 3.125 16.875V19.0625C3.125 19.2344 3.26562 19.375 3.4375 19.375C3.60938 19.375 3.75 19.2344 3.75 19.0625V16.875C3.75 16.7031 3.60938 16.5625 3.4375 16.5625Z" fill="white"/>
<path d="M5.78123 6.56172H5.93748V6.87422C5.93748 7.96172 6.35935 8.98047 7.12498 9.74922C7.8906 10.5148 8.91248 10.9367 9.99998 10.9367C10.8094 10.9367 11.5875 10.7023 12.2562 10.2555C12.4 10.1586 12.4375 9.96484 12.3437 9.82109C12.2469 9.67734 12.0531 9.63984 11.9094 9.73359C11.3469 10.1086 10.6875 10.3086 10.0031 10.3086C9.08435 10.3086 8.21873 9.95234 7.57185 9.30234C6.92498 8.65547 6.5656 7.78984 6.5656 6.87109V5.43672L7.2281 6.09922C7.52185 6.39297 7.9156 6.55547 8.33435 6.55547H11.675C12.0937 6.55547 12.4844 6.39297 12.7812 6.09922L13.4437 5.43672V6.87109C13.4437 7.62734 13.2031 8.34609 12.75 8.94922C12.6469 9.08672 12.675 9.28359 12.8125 9.38672C12.8687 9.43047 12.9344 9.44922 13 9.44922C13.0937 9.44922 13.1875 9.40547 13.25 9.32422C13.7844 8.61172 14.0687 7.76484 14.0687 6.87109V6.55859H14.225C14.8281 6.55859 15.3187 6.06797 15.3187 5.46484C15.3187 4.86172 14.8281 4.37109 14.225 4.37109H14.0687V3.43359C14.0687 1.88359 12.8062 0.621094 11.2562 0.621094H10.9437C10.7719 0.621094 10.6312 0.761719 10.6312 0.933594C10.6312 1.10547 10.7719 1.24609 10.9437 1.24609H11.2562C12.4625 1.24609 13.4437 2.22734 13.4437 3.43359V4.37109H6.56873V3.43359C6.56873 2.22734 7.54998 1.24609 8.75623 1.24609H9.69373C9.8656 1.24609 10.0062 1.10547 10.0062 0.933594C10.0062 0.761719 9.8656 0.621094 9.69373 0.621094H8.75623C7.20623 0.621094 5.94373 1.88359 5.94373 3.43359V4.37109H5.78748C5.18435 4.37109 4.69373 4.86172 4.69373 5.46484C4.69373 6.06797 5.18435 6.55859 5.78748 6.55859L5.78123 6.56172ZM14.0625 4.99922H14.2187C14.4781 4.99922 14.6875 5.20859 14.6875 5.46797C14.6875 5.72734 14.4781 5.93672 14.2187 5.93672H14.0625V4.99922ZM12.9969 4.99922L12.3344 5.66172C12.1594 5.83672 11.9187 5.93672 11.6719 5.93672H8.33123C8.08435 5.93672 7.84373 5.83672 7.66873 5.66172L7.00623 4.99922H12.9969ZM5.78123 4.99922H5.93748V5.93672H5.78123C5.52185 5.93672 5.31248 5.72734 5.31248 5.46797C5.31248 5.20859 5.52185 4.99922 5.78123 4.99922Z" fill="white"/>
<path d="M9.0625 2.8125C9.0625 3.32812 9.48438 3.75 10 3.75C10.5156 3.75 10.9375 3.32812 10.9375 2.8125C10.9375 2.29688 10.5156 1.875 10 1.875C9.48438 1.875 9.0625 2.29688 9.0625 2.8125ZM10 2.5C10.1719 2.5 10.3125 2.64062 10.3125 2.8125C10.3125 2.98438 10.1719 3.125 10 3.125C9.82812 3.125 9.6875 2.98438 9.6875 2.8125C9.6875 2.64062 9.82812 2.5 10 2.5Z" fill="white"/>
<path d="M12.2094 13.2432L9.99999 16.0557L7.79061 13.2432C7.68436 13.1088 7.48749 13.0838 7.35311 13.19C7.21874 13.2963 7.19374 13.4932 7.29999 13.6275L9.35936 16.2463H8.12811C7.95624 16.2463 7.81561 16.3869 7.81561 16.5588V19.0588C7.81561 19.2307 7.95624 19.3713 8.12811 19.3713H11.8781C12.05 19.3713 12.1906 19.2307 12.1906 19.0588V16.5588C12.1906 16.3869 12.05 16.2463 11.8781 16.2463H10.6469L12.7062 13.6275C12.8125 13.4932 12.7906 13.2963 12.6531 13.19C12.5156 13.0838 12.3219 13.1057 12.2156 13.2432H12.2094ZM11.5625 16.8744V18.7494H8.43749V16.8744H11.5625Z" fill="white"/>
</g>
<defs>
<clipPath id="clip0_4753_1154">
<rect width="20" height="20" fill="white"/>
</clipPath>
</defs>
</svg>
