<svg width="16" height="16" viewBox="0 0 16 16" fill="none" xmlns="http://www.w3.org/2000/svg">
<g clip-path="url(#clip0_4790_684)">
<path d="M7.995 0C3.58676 0 0 3.58676 0 7.995C0 12.4032 3.58676 15.99 7.995 15.99C12.4032 15.99 15.99 12.4032 15.99 7.995C15.99 3.58676 12.4032 0 7.995 0ZM7.995 14.9906C4.13841 14.9906 0.999375 11.8526 0.999375 7.995C0.999375 4.13741 4.13841 0.999375 7.995 0.999375C11.8516 0.999375 14.9906 4.13741 14.9906 7.995C14.9906 11.8526 11.8516 14.9906 7.995 14.9906Z" fill="#99A1AF"/>
<path d="M10.4934 5.99484H9.94274C9.86779 5.62308 9.70189 5.28729 9.48103 4.99547H10.4934C10.7692 4.99547 10.9931 4.77161 10.9931 4.49578C10.9931 4.21995 10.7692 3.99609 10.4934 3.99609H7.49527H5.49652C5.22069 3.99609 4.99683 4.21995 4.99683 4.49578C4.99683 4.77161 5.22069 4.99547 5.49652 4.99547H7.49527C8.14586 4.99547 8.69552 5.41421 8.90239 5.99484H5.49652C5.22069 5.99484 4.99683 6.2187 4.99683 6.49453C4.99683 6.77036 5.22069 6.99422 5.49652 6.99422H8.90239C8.69552 7.57486 8.14586 7.99359 7.49527 7.99359H5.49652C5.43156 7.99359 5.3666 8.00659 5.30564 8.03157C5.18371 8.08254 5.08578 8.17948 5.03481 8.3024C4.98384 8.42432 4.98384 8.56224 5.03481 8.68416C5.05979 8.74612 5.09677 8.80109 5.14374 8.84706L9.14024 12.8436C9.23818 12.9415 9.3661 12.9905 9.49402 12.9905C9.62194 12.9905 9.74986 12.9415 9.8478 12.8446C10.0427 12.6497 10.0427 12.3329 9.8478 12.138L6.70276 8.99297H7.49527C8.70251 8.99297 9.71088 8.13351 9.94274 6.99422H10.4934C10.7692 6.99422 10.9931 6.77036 10.9931 6.49453C10.9931 6.2187 10.7692 5.99484 10.4934 5.99484Z" fill="#99A1AF"/>
</g>
<defs>
<clipPath id="clip0_4790_684">
<rect width="15.99" height="15.99" fill="white"/>
</clipPath>
</defs>
</svg>
